<svg width="70" height="90" viewBox="0 0 70 90" fill="none" xmlns="http://www.w3.org/2000/svg">
<g id="snap point 1" clip-path="url(#clip0_54498_25026)" filter="url(#filter0_dd_54498_25026)">
<g id="Clip path group">
<mask id="mask0_54498_25026" style="mask-type:luminance" maskUnits="userSpaceOnUse" x="11" y="7" width="48" height="68">
<g id="ArtboardFrame">
<path id="Vector" d="M59 7H11V75H59V7Z" fill="white"/>
</g>
</mask>
<g mask="url(#mask0_54498_25026)">
<g id="Layer">
<path id="Vector_2" d="M35 7C21.7491 7 11 17.6601 11 30.8011C11 48.651 35 75.0001 35 75.0001C35 75.0001 59 48.651 59 30.8011C59 17.6601 48.2508 7 35 7ZM34.9684 14.7468C36.0289 14.7468 37.0645 14.8495 38.072 15.0324C32.7412 19.9882 29.1318 25.9659 27.6397 33.0339C27.2649 32.7091 27.1551 32.5693 26.9825 32.3616C24.3308 29.1735 22.4599 25.5692 21.1581 21.6611C24.2825 17.468 29.3049 14.7468 34.9684 14.7468ZM39.7381 15.4191C44.489 16.7793 48.3902 20.1158 50.4762 24.4756C44.1195 23.1785 37.9275 23.441 31.6432 25.6876C31.9776 25.0716 32.1889 24.6614 32.4165 24.2595C34.3291 20.8825 36.8322 17.9867 39.7381 15.4191ZM20.1775 23.1344C22.4099 29.2049 25.9218 34.2404 31.0914 38.2971C28.1827 38.7721 25.4692 38.7903 22.754 38.4956C21.4877 38.358 20.235 38.1055 18.9754 37.9034C18.2272 35.9946 17.8119 33.9195 17.8119 31.7486C17.8119 28.6032 18.6748 25.6615 20.1775 23.1344ZM43.4288 25.085C46.0351 25.1017 48.5979 25.4687 51.1335 26.0499C51.765 27.809 52.1123 29.7 52.1213 31.6719V31.8217C52.1022 36.2389 50.3837 40.2584 47.5799 43.2711C46.21 36.4866 43.2618 30.495 38.174 25.4717C40.0228 25.1243 41.7254 25.0742 43.4288 25.085ZM41.731 32.1909C42.5667 33.3456 43.1024 34.4281 43.6081 35.5209C44.9046 38.3214 45.7767 41.256 46.3426 44.2847C46.3536 44.3436 46.3603 44.3971 46.3673 44.4519C43.3365 47.1254 39.3449 48.7503 34.9684 48.7503C34.8884 48.7503 34.8089 48.7481 34.7293 48.7469C36.539 46.3813 38.0676 43.9761 39.2214 41.3483C40.4771 38.4904 41.2859 35.5156 41.731 32.1909ZM39.1371 37.4576C38.6682 39.1626 38.0277 40.6247 37.3233 42.0625C36.1603 44.4345 34.6815 46.5994 33.0035 48.6389C27.1849 47.9813 22.2552 44.4389 19.6959 39.4918C26.3146 40.6382 32.7777 40.1366 39.1371 37.4576Z" fill="white"/>
</g>
</g>
</g>
</g>
<defs>
<filter id="filter0_dd_54498_25026" x="0" y="0" width="70" height="90" filterUnits="userSpaceOnUse" color-interpolation-filters="sRGB">
<feFlood flood-opacity="0" result="BackgroundImageFix"/>
<feColorMatrix in="SourceAlpha" type="matrix" values="0 0 0 0 0 0 0 0 0 0 0 0 0 0 0 0 0 0 127 0" result="hardAlpha"/>
<feOffset dy="1"/>
<feGaussianBlur stdDeviation="1.5"/>
<feColorMatrix type="matrix" values="0 0 0 0 0 0 0 0 0 0 0 0 0 0 0 0 0 0 0.3 0"/>
<feBlend mode="normal" in2="BackgroundImageFix" result="effect1_dropShadow_54498_25026"/>
<feColorMatrix in="SourceAlpha" type="matrix" values="0 0 0 0 0 0 0 0 0 0 0 0 0 0 0 0 0 0 127 0" result="hardAlpha"/>
<feMorphology radius="3" operator="dilate" in="SourceAlpha" result="effect2_dropShadow_54498_25026"/>
<feOffset dy="4"/>
<feGaussianBlur stdDeviation="4"/>
<feColorMatrix type="matrix" values="0 0 0 0 0 0 0 0 0 0 0 0 0 0 0 0 0 0 0.15 0"/>
<feBlend mode="normal" in2="effect1_dropShadow_54498_25026" result="effect2_dropShadow_54498_25026"/>
<feBlend mode="normal" in="SourceGraphic" in2="effect2_dropShadow_54498_25026" result="shape"/>
</filter>
<clipPath id="clip0_54498_25026">
<rect width="48" height="68" fill="white" transform="translate(11 7)"/>
</clipPath>
</defs>
</svg>
